<svg width="24" height="30" viewBox="0 0 24 30" fill="none" xmlns="http://www.w3.org/2000/svg">
<path fill-rule="evenodd" clip-rule="evenodd" d="M9.85649 25.7071C9.85649 27.9055 7.69084 29.6386 5.06458 29.6386C2.43724 29.6386 0.271484 27.9054 0.271484 25.7071C0.271484 23.511 2.43829 21.7765 5.06458 21.7765C5.36224 21.7765 5.7724 21.8281 6.29623 21.9335C6.45209 21.964 6.60443 21.8632 6.63491 21.7073C6.63842 21.6886 6.64076 21.6698 6.64076 21.6499V6.99912C6.64076 6.26319 7.106 5.60694 7.80092 5.36436L21.6489 0.530464C22.2501 0.320698 22.9087 0.638278 23.1184 1.23945C23.1606 1.35899 23.1817 1.48438 23.1829 1.61094L23.3481 22.1141C23.3481 24.3126 21.1813 26.0456 18.555 26.0456C15.9289 26.0456 13.7619 24.3125 13.7619 22.1141C13.7619 19.9181 15.9299 18.1835 18.555 18.1835C18.8527 18.1835 19.2629 18.2363 19.7855 18.3406C19.9425 18.3722 20.0937 18.2703 20.1254 18.1144C20.1289 18.0957 20.1312 18.0757 20.1312 18.057L20.1066 9.64288C20.1054 9.3253 19.8464 9.06748 19.5277 9.06865C19.4691 9.06865 19.4105 9.07802 19.3543 9.0956L10.4962 11.9187C10.0122 12.0722 9.68639 12.5245 9.69224 13.0331L9.85649 25.7071Z" fill="#5956E9"/>
</svg>
