<svg width="16" height="13" viewBox="0 0 16 13" fill="none" xmlns="http://www.w3.org/2000/svg">
<path d="M15.0002 0.99975H1.00024C0.866825 0.99173 0.733227 1.0121 0.608267 1.05952C0.483307 1.10694 0.369827 1.18032 0.275319 1.27483C0.180811 1.36934 0.107426 1.48282 0.060008 1.60778C0.01259 1.73274 -0.00778171 1.86634 0.000237932 1.99975V11.9997C-0.00778171 12.1332 0.01259 12.2668 0.060008 12.3917C0.107426 12.5167 0.180811 12.6302 0.275319 12.7247C0.369827 12.8192 0.483307 12.8926 0.608267 12.94C0.733227 12.9874 0.866825 13.0078 1.00024 12.9997H15.0002C15.1337 13.0078 15.2672 12.9874 15.3922 12.94C15.5172 12.8926 15.6306 12.8192 15.7252 12.7247C15.8197 12.6302 15.8931 12.5167 15.9405 12.3917C15.9879 12.2668 16.0083 12.1332 16.0002 11.9997V1.99975C16.0083 1.86634 15.9879 1.73274 15.9405 1.60778C15.8931 1.48282 15.8197 1.36934 15.7252 1.27483C15.6306 1.18032 15.5172 1.10694 15.3922 1.05952C15.2672 1.0121 15.1337 0.99173 15.0002 0.99975ZM6.00024 9.99975V3.99975L11.0002 6.99975L6.00024 9.99975Z" fill="#5956E9"/>
</svg>
